<?xml version="1.0" encoding="UTF-8"?>
<svg width="1200pt" height="1200pt" version="1.1" viewBox="0 0 1200 1200" xmlns="http://www.w3.org/2000/svg">
 <path d="m872.63 177.37h-545.26c-82.781 0.09375-149.9 67.219-150 150v545.26c0.09375 82.781 67.219 149.9 150 150h545.26c82.781-0.09375 149.9-67.219 150-150v-545.26c-0.09375-82.781-67.219-149.9-150-150zm-635.26 695.26v-545.26c0.09375-49.688 40.312-89.906 90-90h368.63v725.26h-368.63c-49.688-0.09375-89.906-40.312-90-90zm725.29 0h-0.046874c-0.09375 49.688-40.312 89.906-90 90h-116.62v-725.26h116.53c49.641 0.09375 89.859 40.312 90 90z"/>
 <path d="m400.78 600 129.52-129.47c5.7656-5.625 9.0469-13.312 9.0938-21.328 0.09375-8.0625-3.0938-15.797-8.8125-21.469-5.6719-5.6719-13.406-8.8594-21.469-8.7656s-15.75 3.375-21.328 9.1875l-150.56 150.61c-11.719 11.766-11.719 30.703 0 42.469l150.56 150.61c11.766 11.391 30.469 11.25 42.094-0.32812 11.578-11.531 11.766-30.234 0.42188-42.047z"/>
</svg>
